<?xml version="1.0" encoding="UTF-8" standalone="no"?>
<!DOCTYPE svg PUBLIC "-//W3C//DTD SVG 1.1//EN"
 "http://www.w3.org/Graphics/SVG/1.1/DTD/svg11.dtd">
<!-- Generated by graphviz version 2.36.0 (20140111.2315)
 -->
<!-- Title: G Pages: 1 -->
<svg width="460pt" height="690pt"
 viewBox="0.00 0.00 460.00 690.00" xmlns="http://www.w3.org/2000/svg" xmlns:xlink="http://www.w3.org/1999/xlink">
<g id="graph0" class="graph" transform="scale(1 1) rotate(0) translate(4 686)">
<title>G</title>
<polygon fill="white" stroke="none" points="-4,4 -4,-686 456,-686 456,4 -4,4"/>
<g id="clust1" class="cluster"><title>cluster_Global</title>
<path fill="none" stroke="gray" d="M20,-8C20,-8 432,-8 432,-8 438,-8 444,-14 444,-20 444,-20 444,-662 444,-662 444,-668 438,-674 432,-674 432,-674 20,-674 20,-674 14,-674 8,-668 8,-662 8,-662 8,-20 8,-20 8,-14 14,-8 20,-8"/>
<text text-anchor="middle" x="226" y="-661.2" font-family="Times New Roman,serif" font-size="11.00" fill="gray">Global</text>
</g>
<g id="clust2" class="cluster"><title>cluster_\net</title>
<path fill="none" stroke="gray" d="M28,-16C28,-16 424,-16 424,-16 430,-16 436,-22 436,-28 436,-28 436,-634 436,-634 436,-640 430,-646 424,-646 424,-646 28,-646 28,-646 22,-646 16,-640 16,-634 16,-634 16,-28 16,-28 16,-22 22,-16 28,-16"/>
<text text-anchor="middle" x="226" y="-633.2" font-family="Times New Roman,serif" font-size="11.00" fill="gray">net</text>
</g>
<g id="clust3" class="cluster"><title>cluster_\net\staniscia</title>
<path fill="none" stroke="gray" d="M36,-24C36,-24 416,-24 416,-24 422,-24 428,-30 428,-36 428,-36 428,-606 428,-606 428,-612 422,-618 416,-618 416,-618 36,-618 36,-618 30,-618 24,-612 24,-606 24,-606 24,-36 24,-36 24,-30 30,-24 36,-24"/>
<text text-anchor="middle" x="226" y="-605.2" font-family="Times New Roman,serif" font-size="11.00" fill="gray">staniscia</text>
</g>
<g id="clust4" class="cluster"><title>cluster_\net\staniscia\endomondo_php</title>
<path fill="none" stroke="gray" d="M44,-32C44,-32 408,-32 408,-32 414,-32 420,-38 420,-44 420,-44 420,-578 420,-578 420,-584 414,-590 408,-590 408,-590 44,-590 44,-590 38,-590 32,-584 32,-578 32,-578 32,-44 32,-44 32,-38 38,-32 44,-32"/>
<text text-anchor="middle" x="226" y="-577.2" font-family="Times New Roman,serif" font-size="11.00" fill="gray">endomondo_php</text>
</g>
<g id="clust5" class="cluster"><title>cluster_\net\staniscia\endomondo_php\requests</title>
<path fill="none" stroke="gray" d="M52,-382C52,-382 400,-382 400,-382 406,-382 412,-388 412,-394 412,-394 412,-550 412,-550 412,-556 406,-562 400,-562 400,-562 52,-562 52,-562 46,-562 40,-556 40,-550 40,-550 40,-394 40,-394 40,-388 46,-382 52,-382"/>
<text text-anchor="middle" x="226" y="-549.2" font-family="Times New Roman,serif" font-size="11.00" fill="gray">requests</text>
</g>
<g id="clust6" class="cluster"><title>cluster_\net\staniscia\endomondo_php\utils</title>
<path fill="none" stroke="gray" d="M309,-302C309,-302 355,-302 355,-302 361,-302 367,-308 367,-314 367,-314 367,-362 367,-362 367,-368 361,-374 355,-374 355,-374 309,-374 309,-374 303,-374 297,-368 297,-362 297,-362 297,-314 297,-314 297,-308 303,-302 309,-302"/>
<text text-anchor="middle" x="332" y="-361.2" font-family="Times New Roman,serif" font-size="11.00" fill="gray">utils</text>
</g>
<!-- \\net\\staniscia\\endomondo_php\\requests\\Request -->
<g id="node1" class="node"><title>\\net\\staniscia\\endomondo_php\\requests\\Request</title>
<polygon fill="none" stroke="black" points="359,-534 305,-534 305,-498 359,-498 359,-534"/>
<text text-anchor="middle" x="332" y="-513.2" font-family="Times New Roman,serif" font-size="11.00">Request</text>
</g>
<!-- \\net\\staniscia\\endomondo_php\\requests\\Response -->
<g id="node2" class="node"><title>\\net\\staniscia\\endomondo_php\\requests\\Response</title>
<polygon fill="none" stroke="black" points="361.5,-480 302.5,-480 302.5,-444 361.5,-444 361.5,-480"/>
<text text-anchor="middle" x="332" y="-459.2" font-family="Times New Roman,serif" font-size="11.00">Response</text>
</g>
<!-- \\net\\staniscia\\endomondo_php\\requests\\Simple_HttpRequest_Engine -->
<g id="node3" class="node"><title>\\net\\staniscia\\endomondo_php\\requests\\Simple_HttpRequest_Engine</title>
<polygon fill="none" stroke="black" points="403.5,-426 260.5,-426 260.5,-390 403.5,-390 403.5,-426"/>
<text text-anchor="middle" x="332" y="-405.2" font-family="Times New Roman,serif" font-size="11.00">Simple_HttpRequest_Engine</text>
</g>
<!-- \\net\\staniscia\\endomondo_php\\requests\\Requests_Engine_Interface -->
<g id="node4" class="node"><title>\\net\\staniscia\\endomondo_php\\requests\\Requests_Engine_Interface</title>
<polygon fill="none" stroke="black" points="188,-426 48,-426 48,-390 188,-390 188,-426"/>
<text text-anchor="middle" x="118" y="-405.2" font-family="Times New Roman,serif" font-size="11.00">Requests_Engine_Interface</text>
</g>
<!-- \\net\\staniscia\\endomondo_php\\requests\\Simple_HttpRequest_Engine&#45;&gt;\\net\\staniscia\\endomondo_php\\requests\\Requests_Engine_Interface -->
<g id="edge1" class="edge"><title>\\net\\staniscia\\endomondo_php\\requests\\Simple_HttpRequest_Engine&#45;&gt;\\net\\staniscia\\endomondo_php\\requests\\Requests_Engine_Interface</title>
<path fill="none" stroke="black" stroke-dasharray="1,5" d="M260.407,-408C240.52,-408 218.754,-408 198.39,-408"/>
<polygon fill="none" stroke="black" points="198.204,-404.5 188.204,-408 198.204,-411.5 198.204,-404.5"/>
</g>
<!-- \\net\\staniscia\\endomondo_php\\utils\\UUID -->
<g id="node5" class="node"><title>\\net\\staniscia\\endomondo_php\\utils\\UUID</title>
<polygon fill="none" stroke="black" points="359,-346 305,-346 305,-310 359,-310 359,-346"/>
<text text-anchor="middle" x="332" y="-325.2" font-family="Times New Roman,serif" font-size="11.00">UUID</text>
</g>
<!-- \\net\\staniscia\\endomondo_php\\Endomondo_Proxy -->
<g id="node6" class="node"><title>\\net\\staniscia\\endomondo_php\\Endomondo_Proxy</title>
<polygon fill="none" stroke="black" points="382.5,-292 281.5,-292 281.5,-256 382.5,-256 382.5,-292"/>
<text text-anchor="middle" x="332" y="-271.2" font-family="Times New Roman,serif" font-size="11.00">Endomondo_Proxy</text>
</g>
<!-- \\net\\staniscia\\endomondo_php\\Sport_Mapping -->
<g id="node7" class="node"><title>\\net\\staniscia\\endomondo_php\\Sport_Mapping</title>
<polygon fill="none" stroke="black" points="374,-238 290,-238 290,-202 374,-202 374,-238"/>
<text text-anchor="middle" x="332" y="-217.2" font-family="Times New Roman,serif" font-size="11.00">Sport_Mapping</text>
</g>
<!-- \\net\\staniscia\\endomondo_php\\User -->
<g id="node8" class="node"><title>\\net\\staniscia\\endomondo_php\\User</title>
<polygon fill="none" stroke="black" points="359,-184 305,-184 305,-148 359,-148 359,-184"/>
<text text-anchor="middle" x="332" y="-163.2" font-family="Times New Roman,serif" font-size="11.00">User</text>
</g>
<!-- \\net\\staniscia\\endomondo_php\\Workout_List -->
<g id="node9" class="node"><title>\\net\\staniscia\\endomondo_php\\Workout_List</title>
<polygon fill="none" stroke="black" points="370.5,-130 293.5,-130 293.5,-94 370.5,-94 370.5,-130"/>
<text text-anchor="middle" x="332" y="-109.2" font-family="Times New Roman,serif" font-size="11.00">Workout_List</text>
</g>
<!-- \\net\\staniscia\\endomondo_php\\Workout -->
<g id="node10" class="node"><title>\\net\\staniscia\\endomondo_php\\Workout</title>
<polygon fill="none" stroke="black" points="359.5,-76 304.5,-76 304.5,-40 359.5,-40 359.5,-76"/>
<text text-anchor="middle" x="332" y="-55.2" font-family="Times New Roman,serif" font-size="11.00">Workout</text>
</g>
</g>
</svg>
